# 3ds Max Wavefront OBJ Exporter v0.97b - (c)2007 guruware
# File Created: 08.03.2019 05:30:21

#
# object GeoSphere003
#

v  38.967185974121 16.275489807129 55.562339782715
v  49.666896820068 14.980119705200 55.562339782715
v  33.617328643799 14.980119705200 50.313915252686
v  56.171386718750 11.601907730103 55.562339782715
v  46.639667510986 13.117881774902 48.035324096680
v  30.365085601807 11.601907730103 47.123329162598
v  55.930335998535 7.465406894684 55.562339782715
v  50.821533203125 6.044841766357 50.313915252686
v  41.064796447754 6.044841766357 47.123329162598
v  30.485610961914 7.465406894684 47.241573333740
v  33.617328643799 14.980119705200 60.810764312744
v  23.622220993042 13.117882728577 55.562339782715
v  30.365085601807 11.601907730103 64.001350402832
v  25.015228271484 6.044841766357 52.371753692627
v  25.015228271484 6.044841766357 58.752925872803
v  30.485610961914 7.465406894684 63.883106231689
v  46.639667510986 13.117881774902 63.089355468750
v  41.064796447754 6.044841766357 64.001350402832
v  50.821533203125 6.044841766357 60.810764312744
v  42.709033966064 3.204840660095 55.562339782715
# 20 vertices

vn -0.000000012321 1.000000000000 -0.000000024641
vn 0.573359906673 0.819303572178 -0.000000035879
vn -0.286679923534 0.819303572178 -0.496544271708
vn 0.966946303844 0.254979759455 0.000000037767
vn 0.445239037275 0.455026030540 -0.771176695824
vn -0.483473122120 0.254979759455 -0.837400138378
vn 0.942808985710 -0.333333283663 0.000000012321
vn 0.683468580246 -0.493198037148 -0.538169384003
vn 0.106990016997 -0.525916278362 -0.843780279160
vn -0.471404492855 -0.333333343267 -0.816496551037
vn -0.286679893732 0.819303631783 0.496544241905
vn -0.890478074551 0.455026060343 -0.000000006510
vn -0.483473122120 0.254979759455 0.837400138378
vn -0.776927053928 -0.549370408058 -0.307532787323
vn -0.776926994324 -0.549370467663 0.307532817125
vn -0.471404552460 -0.333333313465 0.816496551037
vn 0.445238977671 0.455026060343 0.771176695824
vn 0.106989979744 -0.525916278362 0.843780338764
vn 0.683468580246 -0.493198096752 0.538169384003
vn 0.132176667452 -0.991226196289 0.000000032551
# 20 vertex normals

o GeoSphere003
g GeoSphere003
f 1//1 2//2 3//3 
f 2//2 4//4 5//5 
f 2//2 5//5 3//3 
f 3//3 5//5 6//6 
f 4//4 7//7 8//8 
f 4//4 8//8 5//5 
f 5//5 8//8 9//9 
f 5//5 9//9 6//6 
f 6//6 9//9 10//10 
f 1//1 3//3 11//11 
f 3//3 6//6 12//12 
f 3//3 12//12 11//11 
f 11//11 12//12 13//13 
f 6//6 10//10 14//14 
f 6//6 14//14 12//12 
f 12//12 14//14 15//15 
f 12//12 15//15 13//13 
f 13//13 15//15 16//16 
f 1//1 11//11 2//2 
f 11//11 13//13 17//17 
f 11//11 17//17 2//2 
f 2//2 17//17 4//4 
f 13//13 16//16 18//18 
f 13//13 18//18 17//17 
f 17//17 18//18 19//19 
f 17//17 19//19 4//4 
f 4//4 19//19 7//7 
f 7//7 19//19 8//8 
f 19//19 18//18 20//20 
f 19//19 20//20 8//8 
f 8//8 20//20 9//9 
f 18//18 16//16 15//15 
f 18//18 15//15 20//20 
f 20//20 15//15 14//14 
f 20//20 14//14 9//9 
f 9//9 14//14 10//10 
# 36 faces

